<?xml version="1.0" standalone="no"?>
<!DOCTYPE svg PUBLIC "-//W3C//DTD SVG 20010904//EN"
 "http://www.w3.org/TR/2001/REC-SVG-20010904/DTD/svg10.dtd">
<svg version="1.0" xmlns="http://www.w3.org/2000/svg"
 width="1200.000000pt" height="1200.000000pt" viewBox="0 0 1200.000000 1200.000000"
 preserveAspectRatio="xMidYMid meet">
<metadata>
Created by potrace 1.11, written by Peter Selinger 2001-2013
</metadata>
<g transform="translate(0.000000,1200.000000) scale(0.100000,-0.100000)"
fill="#000000" stroke="none">
<path d="M5727 10883 c-1 0 -87 -4 -192 -8 -104 -4 -212 -8 -240 -10 -71 -4
-243 -16 -285 -20 -19 -2 -69 -6 -110 -10 -139 -12 -175 -15 -200 -20 -14 -2
-50 -7 -80 -10 -30 -3 -71 -8 -90 -10 -19 -3 -55 -7 -80 -10 -25 -4 -56 -8
-70 -10 -14 -2 -45 -7 -70 -10 -25 -4 -54 -8 -65 -10 -234 -34 -502 -88 -760
-152 -99 -25 -187 -46 -195 -48 -97 -22 -548 -171 -564 -186 -6 -5 -16 -9 -24
-9 -8 0 -28 -6 -45 -14 -18 -8 -61 -27 -97 -41 -283 -116 -476 -224 -805 -449
-321 -220 -510 -370 -690 -551 -123 -123 -136 -137 -218 -240 -26 -33 -54 -67
-61 -76 -21 -25 -141 -208 -166 -254 -184 -325 -310 -683 -399 -1130 -16 -82
-33 -170 -36 -195 -4 -25 -8 -54 -10 -65 -19 -131 -40 -311 -50 -425 -4 -54
-6 -76 -22 -290 -4 -58 -8 -330 -8 -605 0 -439 5 -632 20 -820 14 -169 17
-203 20 -230 2 -16 7 -57 10 -90 3 -33 15 -121 26 -195 11 -74 23 -151 25
-170 13 -85 78 -370 113 -496 98 -347 210 -599 385 -874 34 -52 66 -102 73
-110 293 -374 490 -552 1003 -905 102 -70 209 -141 238 -159 30 -17 79 -46
110 -64 156 -91 495 -243 717 -322 213 -75 586 -183 759 -220 169 -35 387 -80
416 -84 52 -8 93 -16 115 -21 11 -2 101 -16 200 -30 241 -34 276 -38 390 -50
33 -3 71 -8 85 -10 14 -2 63 -6 110 -10 47 -4 101 -8 120 -10 19 -2 87 -6 150
-10 63 -4 131 -8 150 -10 216 -21 1113 -21 1365 0 22 1 92 6 155 10 63 4 131
8 150 10 19 2 73 6 120 10 47 3 92 8 100 10 8 2 50 7 93 10 43 4 87 8 97 10
10 2 45 6 77 10 32 3 85 10 118 15 33 5 80 12 105 15 181 24 581 100 768 146
48 11 94 22 102 24 8 2 42 11 75 20 33 9 65 18 70 19 84 21 275 79 400 123 55
20 130 46 168 59 156 54 443 186 602 277 79 45 247 148 255 157 3 3 39 27 80
55 161 107 327 228 470 344 359 291 598 582 788 960 76 151 91 186 154 356 27
74 95 297 104 338 2 10 6 27 9 37 3 10 8 27 10 37 2 10 11 52 20 93 9 41 19
86 21 100 2 14 11 59 19 100 8 41 17 93 20 115 3 22 8 51 10 65 3 14 7 48 10
75 3 28 8 61 10 75 5 25 8 55 20 175 3 33 8 78 10 100 8 73 23 327 30 495 5
127 5 733 0 840 -5 120 -16 307 -19 360 -8 98 -16 202 -22 252 -6 57 -7 71
-24 193 -5 44 -12 97 -15 117 -4 34 -20 126 -44 258 -5 25 -16 79 -26 120 -9
41 -18 82 -20 90 -31 143 -124 431 -187 579 -76 182 -204 421 -277 517 -9 12
-23 32 -31 45 -81 123 -300 361 -465 506 -70 62 -273 221 -335 263 -12 8 -32
22 -44 31 -293 217 -612 405 -899 530 -180 78 -564 216 -667 239 -19 4 -82 21
-140 38 -86 25 -230 61 -300 77 -81 18 -177 38 -260 54 -30 6 -66 13 -80 16
-47 10 -375 63 -430 70 -30 4 -62 9 -70 10 -8 2 -42 6 -75 10 -33 3 -73 8 -90
10 -16 2 -55 6 -85 10 -30 3 -71 8 -90 10 -19 3 -66 7 -105 10 -38 4 -86 8
-105 10 -19 2 -87 6 -150 10 -63 4 -131 8 -150 10 -118 12 -993 28 -1003 18z
m576 -797 c37 -3 82 -8 100 -10 18 -3 55 -8 82 -11 77 -10 102 -14 210 -35 55
-11 109 -22 120 -24 39 -8 205 -56 297 -87 268 -89 593 -251 788 -392 71 -52
162 -119 177 -132 254 -219 402 -387 531 -605 54 -92 161 -322 162 -348 0 -7
4 -20 9 -30 18 -32 73 -242 87 -331 3 -18 8 -43 10 -55 34 -169 58 -443 69
-791 5 -145 5 -2348 0 -2490 -10 -293 -28 -506 -61 -730 -25 -168 -85 -388
-150 -550 -211 -531 -721 -1007 -1382 -1291 -213 -92 -574 -197 -748 -219 -27
-4 -56 -8 -64 -10 -8 -2 -37 -7 -65 -10 -27 -3 -63 -8 -80 -10 -114 -17 -439
-24 -615 -12 -108 7 -131 10 -260 28 -624 86 -1235 362 -1669 754 -240 217
-435 480 -535 725 -15 36 -33 79 -41 95 -50 110 -128 448 -150 650 -3 28 -7
64 -10 80 -2 17 -7 71 -10 120 -4 50 -8 115 -10 145 -13 166 -17 560 -17 1475
0 1050 6 1448 27 1653 21 213 27 263 36 315 6 32 12 70 14 85 8 61 56 256 86
348 124 384 345 700 690 989 186 155 503 354 674 421 17 6 68 28 114 48 221
96 570 189 826 221 28 4 61 8 75 11 14 2 75 7 135 10 61 4 111 7 112 8 6 5
371 -2 436 -8z"/>
</g>
</svg>
